<svg id="visual" viewBox="0 0 960 540" width="960" height="540" xmlns="http://www.w3.org/2000/svg" xmlns:xlink="http://www.w3.org/1999/xlink" version="1.1"><rect x="0" y="0" width="960" height="540" fill="#f4ece7"></rect><defs><linearGradient id="grad1_0" x1="43.8%" y1="0%" x2="100%" y2="100%"><stop offset="14.444444444444446%" stop-color="#352f59" stop-opacity="1"></stop><stop offset="85.55555555555554%" stop-color="#352f59" stop-opacity="1"></stop></linearGradient></defs><defs><linearGradient id="grad1_1" x1="43.8%" y1="0%" x2="100%" y2="100%"><stop offset="14.444444444444446%" stop-color="#352f59" stop-opacity="1"></stop><stop offset="85.55555555555554%" stop-color="#876278" stop-opacity="1"></stop></linearGradient></defs><defs><linearGradient id="grad1_2" x1="43.8%" y1="0%" x2="100%" y2="100%"><stop offset="14.444444444444446%" stop-color="#c2a4a3" stop-opacity="1"></stop><stop offset="85.55555555555554%" stop-color="#876278" stop-opacity="1"></stop></linearGradient></defs><defs><linearGradient id="grad1_3" x1="43.8%" y1="0%" x2="100%" y2="100%"><stop offset="14.444444444444446%" stop-color="#c2a4a3" stop-opacity="1"></stop><stop offset="85.55555555555554%" stop-color="#f4ece7" stop-opacity="1"></stop></linearGradient></defs><defs><linearGradient id="grad2_0" x1="0%" y1="0%" x2="56.3%" y2="100%"><stop offset="14.444444444444446%" stop-color="#352f59" stop-opacity="1"></stop><stop offset="85.55555555555554%" stop-color="#352f59" stop-opacity="1"></stop></linearGradient></defs><defs><linearGradient id="grad2_1" x1="0%" y1="0%" x2="56.3%" y2="100%"><stop offset="14.444444444444446%" stop-color="#876278" stop-opacity="1"></stop><stop offset="85.55555555555554%" stop-color="#352f59" stop-opacity="1"></stop></linearGradient></defs><defs><linearGradient id="grad2_2" x1="0%" y1="0%" x2="56.3%" y2="100%"><stop offset="14.444444444444446%" stop-color="#876278" stop-opacity="1"></stop><stop offset="85.55555555555554%" stop-color="#c2a4a3" stop-opacity="1"></stop></linearGradient></defs><defs><linearGradient id="grad2_3" x1="0%" y1="0%" x2="56.3%" y2="100%"><stop offset="14.444444444444446%" stop-color="#f4ece7" stop-opacity="1"></stop><stop offset="85.55555555555554%" stop-color="#c2a4a3" stop-opacity="1"></stop></linearGradient></defs><g transform="translate(960, 0)"><path d="M0 189C-20.7 172.3 -41.5 155.5 -59.3 143.2C-77.2 130.9 -92.2 123 -113.1 113.1C-134.1 103.3 -161 91.5 -174.6 72.3C-188.2 53.1 -188.6 26.6 -189 0L0 0Z" fill="#dbc8c2"></path><path d="M0 141.8C-15.5 129.2 -31.1 116.6 -44.5 107.4C-57.9 98.2 -69.1 92.2 -84.9 84.9C-100.6 77.5 -120.7 68.6 -131 54.2C-141.2 39.9 -141.5 19.9 -141.7 0L0 0Z" fill="#a7818b"></path><path d="M0 94.5C-10.4 86.1 -20.7 77.8 -29.7 71.6C-38.6 65.4 -46.1 61.5 -56.6 56.6C-67 51.6 -80.5 45.8 -87.3 36.2C-94.1 26.6 -94.3 13.3 -94.5 0L0 0Z" fill="#624669"></path><path d="M0 47.3C-5.2 43.1 -10.4 38.9 -14.8 35.8C-19.3 32.7 -23 30.7 -28.3 28.3C-33.5 25.8 -40.2 22.9 -43.7 18.1C-47.1 13.3 -47.2 6.6 -47.2 0L0 0Z" fill="#352f59"></path></g><g transform="translate(0, 540)"><path d="M0 -189C24.2 -186.2 48.5 -183.4 72.3 -174.6C96.2 -165.9 119.6 -151.2 130.8 -130.8C142 -110.4 141.1 -84.4 148.7 -61.6C156.4 -38.9 172.7 -19.4 189 0L0 0Z" fill="#dbc8c2"></path><path d="M0 -141.7C18.2 -139.6 36.4 -137.5 54.2 -131C72.1 -124.4 89.7 -113.4 98.1 -98.1C106.5 -82.8 105.8 -63.3 111.6 -46.2C117.3 -29.1 129.5 -14.6 141.8 0L0 0Z" fill="#a7818b"></path><path d="M0 -94.5C12.1 -93.1 24.2 -91.7 36.2 -87.3C48.1 -82.9 59.8 -75.6 65.4 -65.4C71 -55.2 70.5 -42.2 74.4 -30.8C78.2 -19.4 86.4 -9.7 94.5 0L0 0Z" fill="#624669"></path><path d="M0 -47.2C6.1 -46.5 12.1 -45.8 18.1 -43.7C24 -41.5 29.9 -37.8 32.7 -32.7C35.5 -27.6 35.3 -21.1 37.2 -15.4C39.1 -9.7 43.2 -4.9 47.3 0L0 0Z" fill="#352f59"></path></g></svg>