<svg id="visual" viewBox="0 150 900 600" xmlns="http://www.w3.org/2000/svg" xmlns:xlink="http://www.w3.org/1999/xlink" version="1.1"><rect x="0" y="0" width="900" height="550" fill="#f4ece7"></rect><defs><linearGradient id="grad1_0" x1="33.3%" y1="100%" x2="100%" y2="0%"><stop offset="20%" stop-color="#352f59" stop-opacity="1"></stop><stop offset="80%" stop-color="#352f59" stop-opacity="1"></stop></linearGradient></defs><defs><linearGradient id="grad1_1" x1="33.3%" y1="100%" x2="100%" y2="0%"><stop offset="20%" stop-color="#352f59" stop-opacity="1"></stop><stop offset="80%" stop-color="#876278" stop-opacity="1"></stop></linearGradient></defs><defs><linearGradient id="grad1_2" x1="33.3%" y1="100%" x2="100%" y2="0%"><stop offset="20%" stop-color="#c2a4a3" stop-opacity="1"></stop><stop offset="80%" stop-color="#876278" stop-opacity="1"></stop></linearGradient></defs><defs><linearGradient id="grad1_3" x1="33.3%" y1="100%" x2="100%" y2="0%"><stop offset="20%" stop-color="#c2a4a3" stop-opacity="1"></stop><stop offset="80%" stop-color="#f4ece7" stop-opacity="1"></stop></linearGradient></defs><defs><linearGradient id="grad2_0" x1="0%" y1="100%" x2="66.7%" y2="0%"><stop offset="20%" stop-color="#352f59" stop-opacity="1"></stop><stop offset="80%" stop-color="#352f59" stop-opacity="1"></stop></linearGradient></defs><defs><linearGradient id="grad2_1" x1="0%" y1="100%" x2="66.7%" y2="0%"><stop offset="20%" stop-color="#876278" stop-opacity="1"></stop><stop offset="80%" stop-color="#352f59" stop-opacity="1"></stop></linearGradient></defs><defs><linearGradient id="grad2_2" x1="0%" y1="100%" x2="66.7%" y2="0%"><stop offset="20%" stop-color="#876278" stop-opacity="1"></stop><stop offset="80%" stop-color="#c2a4a3" stop-opacity="1"></stop></linearGradient></defs><defs><linearGradient id="grad2_3" x1="0%" y1="100%" x2="66.7%" y2="0%"><stop offset="20%" stop-color="#f4ece7" stop-opacity="1"></stop><stop offset="80%" stop-color="#c2a4a3" stop-opacity="1"></stop></linearGradient></defs><g transform="translate(900, 550)"><path d="M-216.3 0C-203.3 -26.5 -190.3 -53 -174.6 -72.3C-158.9 -91.6 -140.5 -103.7 -126.6 -126.6C-112.6 -149.4 -103.1 -183.1 -82.8 -199.9C-62.4 -216.6 -31.2 -216.5 0 -216.3L0 0Z" fill="#dbc8c2"></path><path d="M-162.2 0C-152.5 -19.9 -142.7 -39.8 -131 -54.2C-119.2 -68.7 -105.4 -77.8 -94.9 -94.9C-84.5 -112.1 -77.4 -137.3 -62.1 -149.9C-46.8 -162.5 -23.4 -162.4 0 -162.2L0 0Z" fill="#a7818b"></path><path d="M-108.2 0C-101.7 -13.3 -95.2 -26.5 -87.3 -36.2C-79.5 -45.8 -70.3 -51.9 -63.3 -63.3C-56.3 -74.7 -51.6 -91.6 -41.4 -99.9C-31.2 -108.3 -15.6 -108.2 0 -108.2L0 0Z" fill="#624669"></path><path d="M-54.1 0C-50.8 -6.6 -47.6 -13.3 -43.7 -18.1C-39.7 -22.9 -35.1 -25.9 -31.6 -31.6C-28.2 -37.4 -25.8 -45.8 -20.7 -50C-15.6 -54.2 -7.8 -54.1 0 -54.1L0 0Z" fill="#352f59"></path></g><g transform="translate(0, 0)"><path d="M216.3 0C213.5 29.1 210.6 58.2 198.6 82.3C186.7 106.3 165.6 125.3 145.7 145.7C125.7 166 106.9 187.9 82.8 199.9C58.7 211.9 29.3 214.1 0 216.3L0 0Z" fill="#dbc8c2"></path><path d="M162.2 0C160.1 21.8 157.9 43.7 149 61.7C140 79.7 124.2 94 109.2 109.2C94.3 124.5 80.2 140.9 62.1 149.9C44 158.9 22 160.6 0 162.2L0 0Z" fill="#a7818b"></path><path d="M108.2 0C106.7 14.6 105.3 29.1 99.3 41.1C93.3 53.2 82.8 62.6 72.8 72.8C62.9 83 53.4 93.9 41.4 99.9C29.3 105.9 14.7 107.1 0 108.2L0 0Z" fill="#624669"></path><path d="M54.1 0C53.4 7.3 52.6 14.6 49.7 20.6C46.7 26.6 41.4 31.3 36.4 36.4C31.4 41.5 26.7 47 20.7 50C14.7 53 7.3 53.5 0 54.1L0 0Z" fill="#352f59"></path></g></svg>