<svg id="visual" viewBox="0 120 900 600" width="900" height="600" xmlns="http://www.w3.org/2000/svg" xmlns:xlink="http://www.w3.org/1999/xlink" version="1.1"><rect x="0" y="0" width="900" height="600" fill="#F2E0D5"></rect><defs><linearGradient id="grad1_0" x1="33.3%" y1="100%" x2="100%" y2="0%"><stop offset="20%" stop-color="#352f59" stop-opacity="1"></stop><stop offset="80%" stop-color="#352f59" stop-opacity="1"></stop></linearGradient></defs><defs><linearGradient id="grad1_1" x1="33.3%" y1="100%" x2="100%" y2="0%"><stop offset="20%" stop-color="#352f59" stop-opacity="1"></stop><stop offset="80%" stop-color="#74516f" stop-opacity="1"></stop></linearGradient></defs><defs><linearGradient id="grad1_2" x1="33.3%" y1="100%" x2="100%" y2="0%"><stop offset="20%" stop-color="#a67b87" stop-opacity="1"></stop><stop offset="80%" stop-color="#74516f" stop-opacity="1"></stop></linearGradient></defs><defs><linearGradient id="grad1_3" x1="33.3%" y1="100%" x2="100%" y2="0%"><stop offset="20%" stop-color="#a67b87" stop-opacity="1"></stop><stop offset="80%" stop-color="#ceaca8" stop-opacity="1"></stop></linearGradient></defs><defs><linearGradient id="grad1_4" x1="33.3%" y1="100%" x2="100%" y2="0%"><stop offset="20%" stop-color="#f2e0d5" stop-opacity="1"></stop><stop offset="80%" stop-color="#ceaca8" stop-opacity="1"></stop></linearGradient></defs><defs><linearGradient id="grad2_0" x1="0%" y1="100%" x2="66.7%" y2="0%"><stop offset="20%" stop-color="#352f59" stop-opacity="1"></stop><stop offset="80%" stop-color="#352f59" stop-opacity="1"></stop></linearGradient></defs><defs><linearGradient id="grad2_1" x1="0%" y1="100%" x2="66.7%" y2="0%"><stop offset="20%" stop-color="#74516f" stop-opacity="1"></stop><stop offset="80%" stop-color="#352f59" stop-opacity="1"></stop></linearGradient></defs><defs><linearGradient id="grad2_2" x1="0%" y1="100%" x2="66.7%" y2="0%"><stop offset="20%" stop-color="#74516f" stop-opacity="1"></stop><stop offset="80%" stop-color="#a67b87" stop-opacity="1"></stop></linearGradient></defs><defs><linearGradient id="grad2_3" x1="0%" y1="100%" x2="66.7%" y2="0%"><stop offset="20%" stop-color="#ceaca8" stop-opacity="1"></stop><stop offset="80%" stop-color="#a67b87" stop-opacity="1"></stop></linearGradient></defs><defs><linearGradient id="grad2_4" x1="0%" y1="100%" x2="66.7%" y2="0%"><stop offset="20%" stop-color="#ceaca8" stop-opacity="1"></stop><stop offset="80%" stop-color="#f2e0d5" stop-opacity="1"></stop></linearGradient></defs><g transform="translate(900, 600)"><path d="M-351.5 0C-350.3 -49.8 -349.1 -99.6 -324.8 -134.5C-300.5 -169.5 -253.1 -189.6 -218.5 -218.5C-183.9 -247.4 -162.1 -284.9 -127.8 -308.6C-93.5 -332.2 -46.8 -341.9 0 -351.5L0 0Z" fill="#e0c6bd"></path><path d="M-281.2 0C-280.3 -39.8 -279.3 -79.7 -259.8 -107.6C-240.4 -135.6 -202.5 -151.7 -174.8 -174.8C-147.1 -197.9 -129.7 -228 -102.3 -246.9C-74.8 -265.8 -37.4 -273.5 0 -281.2L0 0Z" fill="#bb9396"></path><path d="M-210.9 0C-210.2 -29.9 -209.5 -59.7 -194.9 -80.7C-180.3 -101.7 -151.9 -113.8 -131.1 -131.1C-110.3 -148.4 -97.3 -171 -76.7 -185.1C-56.1 -199.3 -28.1 -205.1 0 -210.9L0 0Z" fill="#8e657a"></path><path d="M-140.6 0C-140.1 -19.9 -139.6 -39.8 -129.9 -53.8C-120.2 -67.8 -101.2 -75.9 -87.4 -87.4C-73.6 -98.9 -64.8 -114 -51.1 -123.4C-37.4 -132.9 -18.7 -136.7 0 -140.6L0 0Z" fill="#573f64"></path><path d="M-70.3 0C-70.1 -10 -69.8 -19.9 -65 -26.9C-60.1 -33.9 -50.6 -37.9 -43.7 -43.7C-36.8 -49.5 -32.4 -57 -25.6 -61.7C-18.7 -66.4 -9.4 -68.4 0 -70.3L0 0Z" fill="#352f59"></path></g><g transform="translate(0, 0)"><path d="M351.5 0C343.9 48.2 336.2 96.4 310.4 128.6C284.6 160.8 240.8 177 211.4 211.4C182.1 245.8 167.3 298.4 134.5 324.8C101.7 351.2 50.9 351.4 0 351.5L0 0Z" fill="#e0c6bd"></path><path d="M281.2 0C275.1 38.5 269 77.1 248.3 102.9C227.7 128.6 192.6 141.6 169.1 169.1C145.7 196.7 133.9 238.7 107.6 259.8C81.4 280.9 40.7 281.1 0 281.2L0 0Z" fill="#bb9396"></path><path d="M210.9 0C206.3 28.9 201.7 57.8 186.3 77.1C170.8 96.5 144.5 106.2 126.9 126.9C109.3 147.5 100.4 179 80.7 194.9C61 210.7 30.5 210.8 0 210.9L0 0Z" fill="#8e657a"></path><path d="M140.6 0C137.5 19.3 134.5 38.5 124.2 51.4C113.9 64.3 96.3 70.8 84.6 84.6C72.8 98.3 66.9 119.4 53.8 129.9C40.7 140.5 20.3 140.5 0 140.6L0 0Z" fill="#573f64"></path><path d="M70.3 0C68.8 9.6 67.2 19.3 62.1 25.7C56.9 32.2 48.2 35.4 42.3 42.3C36.4 49.2 33.5 59.7 26.9 65C20.3 70.2 10.2 70.3 0 70.3L0 0Z" fill="#352f59"></path></g></svg>