<svg id="visual" viewBox="0 0 900 600" width="900" height="600" xmlns="http://www.w3.org/2000/svg" xmlns:xlink="http://www.w3.org/1999/xlink" version="1.1"><path d="M0 508L21.5 511.7C43 515.3 86 522.7 128.8 528.7C171.7 534.7 214.3 539.3 257.2 535.8C300 532.3 343 520.7 385.8 516.7C428.7 512.7 471.3 516.3 514.2 521.7C557 527 600 534 642.8 539.2C685.7 544.3 728.3 547.7 771.2 543.5C814 539.3 857 527.7 878.5 521.8L900 516L900 601L878.5 601C857 601 814 601 771.2 601C728.3 601 685.7 601 642.8 601C600 601 557 601 514.2 601C471.3 601 428.7 601 385.8 601C343 601 300 601 257.2 601C214.3 601 171.7 601 128.8 601C86 601 43 601 21.5 601L0 601Z" fill="#a6496b"></path><path d="M0 559L21.5 557.2C43 555.3 86 551.7 128.8 548.5C171.7 545.3 214.3 542.7 257.2 547.3C300 552 343 564 385.8 567.5C428.7 571 471.3 566 514.2 563C557 560 600 559 642.8 558.2C685.7 557.3 728.3 556.7 771.2 557.7C814 558.7 857 561.3 878.5 562.7L900 564L900 601L878.5 601C857 601 814 601 771.2 601C728.3 601 685.7 601 642.8 601C600 601 557 601 514.2 601C471.3 601 428.7 601 385.8 601C343 601 300 601 257.2 601C214.3 601 171.7 601 128.8 601C86 601 43 601 21.5 601L0 601Z" fill="#352f59"></path></svg>