<svg id="visual" viewBox="0 0 960 540" width="960" height="540" xmlns="http://www.w3.org/2000/svg" xmlns:xlink="http://www.w3.org/1999/xlink" version="1.1"><path d="M0 359L22.8 356C45.7 353 91.3 347 137 340.5C182.7 334 228.3 327 274 327.3C319.7 327.7 365.3 335.3 411.2 340C457 344.7 503 346.3 548.8 348.2C594.7 350 640.3 352 686 351.5C731.7 351 777.3 348 823 341.5C868.7 335 914.3 325 937.2 320L960 315L960 541L937.2 541C914.3 541 868.7 541 823 541C777.3 541 731.7 541 686 541C640.3 541 594.7 541 548.8 541C503 541 457 541 411.2 541C365.3 541 319.7 541 274 541C228.3 541 182.7 541 137 541C91.3 541 45.7 541 22.8 541L0 541Z" fill="#a6496b"></path><path d="M0 357L22.8 357.7C45.7 358.3 91.3 359.7 137 368.2C182.7 376.7 228.3 392.3 274 403C319.7 413.7 365.3 419.3 411.2 420.5C457 421.7 503 418.3 548.8 412C594.7 405.7 640.3 396.3 686 391.3C731.7 386.3 777.3 385.7 823 392C868.7 398.3 914.3 411.7 937.2 418.3L960 425L960 541L937.2 541C914.3 541 868.7 541 823 541C777.3 541 731.7 541 686 541C640.3 541 594.7 541 548.8 541C503 541 457 541 411.2 541C365.3 541 319.7 541 274 541C228.3 541 182.7 541 137 541C91.3 541 45.7 541 22.8 541L0 541Z" fill="#be6471"></path><path d="M0 411L22.8 419C45.7 427 91.3 443 137 446.5C182.7 450 228.3 441 274 440.2C319.7 439.3 365.3 446.7 411.2 448C457 449.3 503 444.7 548.8 439.7C594.7 434.7 640.3 429.3 686 432.2C731.7 435 777.3 446 823 440.8C868.7 435.7 914.3 414.3 937.2 403.7L960 393L960 541L937.2 541C914.3 541 868.7 541 823 541C777.3 541 731.7 541 686 541C640.3 541 594.7 541 548.8 541C503 541 457 541 411.2 541C365.3 541 319.7 541 274 541C228.3 541 182.7 541 137 541C91.3 541 45.7 541 22.8 541L0 541Z" fill="#d2807a"></path><path d="M0 483L22.8 475.8C45.7 468.7 91.3 454.3 137 449.5C182.7 444.7 228.3 449.3 274 449.3C319.7 449.3 365.3 444.7 411.2 449.5C457 454.3 503 468.7 548.8 469.7C594.7 470.7 640.3 458.3 686 456.2C731.7 454 777.3 462 823 467.3C868.7 472.7 914.3 475.3 937.2 476.7L960 478L960 541L937.2 541C914.3 541 868.7 541 823 541C777.3 541 731.7 541 686 541C640.3 541 594.7 541 548.8 541C503 541 457 541 411.2 541C365.3 541 319.7 541 274 541C228.3 541 182.7 541 137 541C91.3 541 45.7 541 22.8 541L0 541Z" fill="#e39d88"></path><path d="M0 485L22.8 486C45.7 487 91.3 489 137 491.3C182.7 493.7 228.3 496.3 274 495.7C319.7 495 365.3 491 411.2 487.5C457 484 503 481 548.8 484.8C594.7 488.7 640.3 499.3 686 499C731.7 498.7 777.3 487.3 823 484.5C868.7 481.7 914.3 487.3 937.2 490.2L960 493L960 541L937.2 541C914.3 541 868.7 541 823 541C777.3 541 731.7 541 686 541C640.3 541 594.7 541 548.8 541C503 541 457 541 411.2 541C365.3 541 319.7 541 274 541C228.3 541 182.7 541 137 541C91.3 541 45.7 541 22.8 541L0 541Z" fill="#f2bb9b"></path></svg>